<?xml version="1.0" encoding="UTF-8" standalone="no"?>
<!-- Created with Inkscape (http://www.inkscape.org/) -->

<svg
   width="86.688538mm"
   height="106.50566mm"
   viewBox="0 0 86.688538 106.50566"
   version="1.1"
   id="svg5"
   xmlns="http://www.w3.org/2000/svg"
   xmlns:svg="http://www.w3.org/2000/svg">
  <defs
     id="defs2" />
  <g
     id="layer1"
     transform="translate(-54.049184,-55.427031)">
    <path
       style="fill:#800080;stroke-width:0.264583"
       id="path111"
       d="M 31.917655,48.56618 40.514146,34.035693 57.396162,34.215229 65.681687,48.925252 57.085196,63.455739 40.20318,63.276203 Z"
       transform="translate(48.777987,21.391339)" />
    <path
       style="fill:#000080;stroke-width:0.264583"
       id="path111-3"
       d="M 31.917655,48.56618 40.514146,34.035693 57.396162,34.215229 65.681687,48.925252 57.085196,63.455739 40.20318,63.276203 Z"
       transform="translate(75.056037,36.913612)" />
    <path
       style="fill:#000080;stroke-width:0.264583"
       id="path111-3-6"
       d="M 31.917655,48.56618 40.514146,34.035693 57.396162,34.215229 65.681687,48.925252 57.085196,63.455739 40.20318,63.276203 Z"
       transform="translate(22.186426,36.275718)" />
    <path
       style="fill:#800080;stroke-width:0.264583"
       id="path303"
       d="M 31.917655,48.56618 40.514146,34.035693 57.396162,34.215229 65.681687,48.925252 57.085196,63.455739 40.20318,63.276203 Z"
       transform="translate(22.131529,66.522861)" />
    <path
       style="fill:#800080;stroke-width:0.264583"
       id="path305"
       d="M 31.917655,48.56618 40.514146,34.035693 57.396162,34.215229 65.681687,48.925252 57.085196,63.455739 40.20318,63.276203 Z"
       transform="translate(74.749563,67.202155)" />
    <path
       style="fill:#000080;stroke-width:0.264583"
       id="path321"
       d="M 31.917655,48.56618 40.514146,34.035693 57.396162,34.215229 65.681687,48.925252 57.085196,63.455739 40.20318,63.276203 Z"
       transform="translate(48.2304,82.287503)" />
    <text
       xml:space="preserve"
       style="font-size:16.9333px;fill:#000080;stroke-width:0.264583"
       x="60.801441"
       y="157.73323"
       id="text377"><tspan
         id="tspan375"
         style="font-style:normal;font-variant:normal;font-weight:normal;font-stretch:normal;font-size:16.9333px;font-family:Z003;-inkscape-font-specification:Z003;stroke-width:0.264583"
         x="60.801441"
         y="157.73323">Nymessence</tspan></text>
  </g>
</svg>
